<svg width="828" height="307" viewBox="0 0 828 307" fill="none" xmlns="http://www.w3.org/2000/svg">
<path d="M512.53 131.6C504.01 142.33 487.5 173.52 474.57 168.12C457.77 161.1 496.5 93.1299 517.11 97.8199C526.99 100.07 520.89 112.39 527.33 113.93C538.39 116.58 551.28 89.2399 527.3 79.0899C506.64 70.3399 458.95 90.7599 437.59 150.65C401.39 204.05 387.42 192.46 386.07 169.94C424.57 129.76 454.65 75.0899 460.94 36.8499C465.12 11.4799 453.83 -16.5601 414.16 13.7999C376.64 42.5199 340.1 116.07 348.79 178.89C330.23 210.08 316.86 206.07 320.7 179.97C323.79 158.91 306.18 158.76 299.14 173.38C286.32 200 268.15 215.56 259.46 210.9C241.46 201.25 278.45 130.65 301.92 134.39C313.2 136.19 303.77 150.47 312.94 151.31C328.59 152.74 337.35 126.25 317.61 116.75C296.99 106.82 265.88 122.44 242.7 153.49C219.3 184.84 216.52 220.79 240.17 232.31C263.95 243.9 288.77 222.36 300.9 202.12C307 230.88 336.03 221.99 355.18 193.07C379.37 226.33 421.14 204.7 438.97 171.65C441.53 191.4 477.52 212.73 513.1 154.57C513.09 200.48 545.85 193.21 552.73 183.6C558.99 174.87 534.04 185.1 535.56 148.89C536.73 121.38 522.63 118.87 512.53 131.6ZM383.8 144.3C390.63 72.6099 431.2 22.1799 439.83 26.2799C450.61 31.3999 415.99 103.63 383.8 144.3ZM825.12 200.67C822.82 196 806.41 174.04 765.6 170.88C785.52 93.6499 787.28 61.3199 775.41 56.1899C760.66 49.7999 751.98 75.8699 744.42 101.63C731.94 144.13 699.1 162.42 713.84 115.35C722.24 88.5299 732.37 65.8599 720.03 60.1399C712.25 56.5299 702.12 64.5399 686.17 99.3899C644.63 190.15 630.01 149.05 618.24 122.87C668.87 67.1899 676.05 84.6299 675.2 73.5099C674.16 59.8199 648.86 49.1499 607.27 98.1399C591.27 58.9499 557.17 61.6399 554.3 79.3099C552.84 88.2799 563.59 72.2199 588.99 121.55C567.52 150.84 552.61 184.5 563.97 185.26C573.48 185.9 585.2 160.49 599.32 145.6C626.63 206.55 667.34 167.43 679.79 139.42C677.02 181.65 728.4 170.98 744.5 130.89C742.74 139.91 737.23 161.53 733.05 173.06C652.94 191.66 596.41 276.53 635.84 299.65C667.06 317.95 728.64 278.09 758.83 191.59C758.83 191.59 797.78 187.29 821.07 212.59C824.14 215.89 831.08 212.76 825.12 200.67ZM650.31 284.17C623.52 280.98 672.31 214.87 723.93 197.45C709.54 232.76 674.94 287.11 650.31 284.17ZM167.52 200.44C150.05 229.25 74.9099 292.39 21.5499 255.32C-21.5201 225.4 4.69994 150.75 69.2799 90.2599C162.42 3.01994 249.1 -9.89005 268.03 27.6599C287.22 65.7299 217.61 105.18 225.56 70.3699C230.68 47.9199 228.43 2.26994 139.01 71.1599C81.0099 115.83 35.6699 201.74 88.0799 210.31C126.58 216.61 156.33 174.6 177.85 161.69C217.44 137.94 217.88 196.21 201.45 235.56C172.5 304.91 114.88 312.43 109.64 303.87C104.2 294.96 122.99 304.09 148.04 258.21C169.6 218.73 167.52 200.44 167.52 200.44Z" fill="#502C1E"/>
<path d="M795.14 52.7599C795.14 45.7899 800.79 40.6599 807.47 40.6599C814.08 40.6599 819.73 45.7999 819.73 52.7599C819.73 59.7899 814.08 64.9299 807.47 64.9299C800.79 64.9199 795.14 59.7899 795.14 52.7599ZM807.47 62.8999C812.96 62.8999 817.29 58.5999 817.29 52.7599C817.29 47.0099 812.96 42.6799 807.47 42.6799C801.92 42.6799 797.58 47.0099 797.58 52.7599C797.58 58.5999 801.92 62.8999 807.47 62.8999ZM804.9 59.7899H802.78V45.7899H808.11C811.42 45.7899 813.05 47.0099 813.05 49.7699C813.05 52.2699 811.48 53.3699 809.42 53.6199L813.4 59.7799H811.02L807.33 53.7099H804.89V59.7899H804.9ZM807.44 51.9199C809.24 51.9199 810.84 51.7899 810.84 49.6399C810.84 47.9099 809.27 47.5899 807.79 47.5899H804.9V51.9199H807.44Z" fill="#502C1E"/>
</svg>
