<svg xmlns="http://www.w3.org/2000/svg" width="21" height="20" fill="none" viewBox="0 0 21 20">
<path fill="#fff" fill-rule="evenodd" d="M16.582.42H4.708C2.646.42.968 2.096.968 4.16v11.874c0 2.063 1.678 3.74 3.74 3.74h11.874c2.062 0 3.74-1.677 3.74-3.74V4.16c0-2.063-1.678-3.74-3.74-3.74zm1.073 2.231l.428-.002v3.28l-3.27.01-.012-3.28 2.854-.008zM7.885 8.11c.618-.858 1.624-1.42 2.761-1.42s2.143.562 2.762 1.42c.404.56.645 1.245.645 1.987 0 1.878-1.528 3.406-3.407 3.406-1.878 0-3.406-1.528-3.406-3.406 0-.742.241-1.427.644-1.987zm10.552 7.924c0 1.023-.832 1.855-1.855 1.855H4.708c-1.023 0-1.855-.832-1.855-1.855V8.11h2.89c-.25.614-.39 1.285-.39 1.987 0 2.918 2.374 5.293 5.292 5.293 2.919 0 5.293-2.375 5.293-5.293 0-.702-.143-1.373-.39-1.987h2.889v7.924z" clip-rule="evenodd"/>
</svg>