<svg width="22" height="22" viewBox="0 0 22 22" fill="none" xmlns="http://www.w3.org/2000/svg">
<path fill-rule="evenodd" clip-rule="evenodd" d="M10.5606 0C4.72893 0 0 4.72769 0 10.5606C0 14.8835 2.60042 18.5991 6.32222 20.2321C6.29241 19.4957 6.31725 18.609 6.50477 17.8068C6.70843 16.9499 7.86334 12.0533 7.86334 12.0533C7.86334 12.0533 7.5268 11.379 7.5268 10.3818C7.5268 8.81708 8.43459 7.6485 9.56342 7.6485C10.5234 7.6485 10.9878 8.37001 10.9878 9.23433C10.9878 10.1992 10.3719 11.6435 10.0552 12.981C9.79068 14.1024 10.6165 15.0151 11.7217 15.0151C13.7224 15.0151 15.0697 12.4457 15.0697 9.40074C15.0697 7.08719 13.5112 5.35482 10.6761 5.35482C7.4734 5.35482 5.47776 7.74288 5.47776 10.4104C5.47776 11.3318 5.74848 11.98 6.17319 12.4818C6.36941 12.714 6.39548 12.8059 6.3247 13.0716C6.27503 13.2641 6.15829 13.7335 6.10986 13.9186C6.03908 14.1856 5.82299 14.2824 5.58208 14.1831C4.10553 13.5808 3.41879 11.9651 3.41879 10.1483C3.41879 7.14928 5.94842 3.55043 10.9655 3.55043C14.9977 3.55043 17.6515 6.47 17.6515 9.60068C17.6515 13.7435 15.3492 16.8381 11.9527 16.8381C10.814 16.8381 9.741 16.2222 9.37342 15.523C9.37342 15.523 8.75995 17.9558 8.6308 18.4252C8.40727 19.2386 7.9689 20.0533 7.56778 20.6866C8.51779 20.9673 9.5212 21.12 10.5606 21.12C16.3923 21.12 21.12 16.3923 21.12 10.5606C21.12 4.72769 16.3923 0 10.5606 0Z" fill="white"/>
</svg>