<svg xmlns="http://www.w3.org/2000/svg" width="21" height="19" fill="none" viewBox="0 0 21 19">
<path fill="#fff" fill-rule="evenodd" d="M18.574 3.593c.861-.544 1.522-1.406 1.832-2.432-.806.504-1.697.869-2.648 1.067C17 1.372 15.915.838 14.715.838c-2.302 0-4.168 1.97-4.168 4.398 0 .344.035.68.106 1.001C7.19 6.053 4.118 4.305 2.06 1.643c-.359.651-.564 1.406-.564 2.211 0 1.525.736 2.871 1.855 3.661-.684-.022-1.327-.222-1.89-.55v.055c0 2.13 1.437 3.908 3.346 4.311-.35.103-.718.155-1.1.155-.268 0-.53-.027-.783-.078.53 1.746 2.07 3.02 3.894 3.053-1.427 1.18-3.225 1.882-5.178 1.882-.336 0-.669-.019-.994-.06 1.845 1.246 4.036 1.975 6.39 1.975 7.67 0 11.862-6.7 11.862-12.512 0-.19-.002-.38-.01-.568.814-.62 1.523-1.395 2.08-2.277-.748.35-1.552.586-2.394.692z" clip-rule="evenodd"/>
</svg>